<svg width="35" height="34" viewBox="0 0 35 34" fill="none" xmlns="http://www.w3.org/2000/svg">
<path d="M26.7205 6.14893C26.1929 6.14893 25.6869 6.35847 25.3138 6.73154C24.9407 7.10462 24.7312 7.61061 24.7312 8.13822C24.7312 8.66583 24.9407 9.17181 25.3138 9.54489C25.6869 9.91797 26.1929 10.1277 26.7205 10.1277C26.9817 10.1277 27.2404 10.0762 27.4817 9.97619C27.7231 9.87621 27.9424 9.72962 28.1272 9.54489C28.3119 9.36016 28.4585 9.14102 28.5585 8.89966C28.6584 8.6583 28.7098 8.39946 28.7098 8.13822C28.7098 7.87697 28.6584 7.61834 28.5585 7.37698C28.4585 7.13562 28.3119 6.91627 28.1272 6.73154C27.9424 6.54682 27.7231 6.40043 27.4817 6.30045C27.2404 6.20048 26.9817 6.14893 26.7205 6.14893Z" fill="currentColor"/>
<path d="M17.859 8.61499C15.6365 8.61934 13.5064 9.50418 11.9348 11.0757C10.3633 12.6472 9.47847 14.7774 9.47412 16.9998C9.47848 19.2208 10.3638 21.3494 11.9359 22.9183C13.5079 24.4873 15.638 25.3682 17.859 25.3682C20.0784 25.3682 22.2071 24.4867 23.7765 22.9173C25.3459 21.348 26.2274 19.2193 26.2274 16.9998C26.2274 14.7789 25.3464 12.6487 23.7775 11.0767C22.2086 9.50472 20.0799 8.61935 17.859 8.61499ZM17.859 22.3596C16.4375 22.3596 15.0742 21.7949 14.069 20.7898C13.0639 19.7846 12.4992 18.4213 12.4992 16.9998C12.4992 15.5783 13.0639 14.2151 14.069 13.2099C15.0742 12.2048 16.4375 11.6401 17.859 11.6401C19.2805 11.6401 20.6438 12.2048 21.6489 13.2099C22.6541 14.2151 23.2187 15.5783 23.2187 16.9998C23.2187 18.4213 22.6541 19.7846 21.6489 20.7898C20.6438 21.7949 19.2805 22.3596 17.859 22.3596Z" fill="currentColor"/>
<path d="M24.501 33.9998H10.9207C8.21423 33.9954 5.61989 32.9184 3.70611 31.0046C1.79234 29.0908 0.715285 26.4965 0.710938 23.79V10.2098C0.715285 7.50329 1.79234 4.90895 3.70611 2.99518C5.61989 1.0814 8.21423 0.00434777 10.9207 0H24.501C27.2103 -3.50147e-06 29.8089 1.07511 31.7262 2.98936C33.6435 4.9036 34.7228 7.50045 34.7272 10.2098V23.79C34.7228 26.4994 33.6435 29.0962 31.7262 31.0104C29.8089 32.9247 27.2103 33.9998 24.501 33.9998ZM10.9207 3.18945C9.06166 3.1938 7.28015 3.93551 5.96715 5.2516C4.65414 6.56768 3.91684 8.35072 3.91684 10.2098V23.79C3.91684 25.6476 4.65468 27.4291 5.96815 28.7426C7.28163 30.0561 9.06317 30.7939 10.9207 30.7939H24.501C26.36 30.7939 28.1431 30.0566 29.4591 28.7436C30.7752 27.4306 31.5169 25.6491 31.5213 23.79V10.2098C31.5213 8.34788 30.7815 6.56234 29.465 5.24577C28.1484 3.92921 26.3629 3.18945 24.501 3.18945H10.9207Z" fill="currentColor"/>
</svg>
