<svg width="35" height="34" viewBox="0 0 35 34" fill="none" xmlns="http://www.w3.org/2000/svg">
<path d="M0.727295 34L3.16053 24.9081C1.78887 22.4202 1.06513 19.6273 1.05603 16.7864C1.06474 12.3342 2.83842 8.06706 5.98812 4.92045C9.13782 1.77383 13.4065 0.00434356 17.8587 0C22.3093 0.00435271 26.5765 1.77437 29.7236 4.92145C32.8706 8.06854 34.6407 12.3357 34.645 16.7864C34.645 21.2399 32.8769 25.5111 29.7294 28.6617C26.5818 31.8123 22.3121 33.5846 17.8587 33.589C15.0674 33.5823 12.3216 32.8817 9.86837 31.5503L0.727295 34ZM10.3288 28.1469L10.9042 28.4923C13.0093 29.7422 15.4104 30.4062 17.8587 30.4158C21.4706 30.4114 24.9331 28.9737 27.4856 26.4181C30.0381 23.8626 31.4718 20.3983 31.4718 16.7864C31.4675 13.1773 30.0318 9.71724 27.4798 7.16523C24.9278 4.61321 21.4677 3.17755 17.8587 3.17319C14.248 3.17753 10.7863 4.61268 8.2317 7.16422C5.67707 9.71576 4.23793 13.1758 4.22923 16.7864C4.23114 19.283 4.92542 21.7302 6.23498 23.8559L6.58017 24.4314L5.21565 29.5116L10.3288 28.1469Z" fill="currentColor"/>
<path fill-rule="evenodd" clip-rule="evenodd" d="M24.1063 19.1208C23.7733 18.855 23.3836 18.6694 22.9674 18.5782C22.5511 18.4869 22.1196 18.4926 21.706 18.5948C21.0812 18.8414 20.67 19.8279 20.2754 20.2389C20.1895 20.3567 20.0632 20.4386 19.9206 20.4689C19.778 20.4992 19.6292 20.4758 19.5027 20.4033C17.2173 19.5082 15.3002 17.8692 14.0609 15.7506C13.9477 15.624 13.8851 15.46 13.8851 15.2902C13.8851 15.1203 13.9477 14.9564 14.0609 14.8298C14.5349 14.3831 14.8762 13.8141 15.0473 13.1857C15.0931 12.5251 14.9383 11.8661 14.6034 11.2949C14.2746 10.588 13.9129 9.65096 13.2059 9.17417C12.8653 9.01698 12.4861 8.96273 12.1152 9.01823C11.7442 9.07373 11.3976 9.23647 11.1179 9.48645C10.6452 9.89152 10.2686 10.3968 10.0155 10.9656C9.76238 11.5343 9.63909 12.1523 9.65463 12.7746C9.65682 13.1348 9.70108 13.4934 9.78628 13.8433C10.0125 14.6715 10.3558 15.4633 10.8056 16.1945C11.1321 16.7613 11.4887 17.3101 11.8741 17.8386C13.1181 19.5578 14.6879 21.0158 16.4941 22.1297C17.3993 22.6947 18.3642 23.1578 19.3713 23.5106C20.4041 23.9652 21.5364 24.1463 22.6595 24.0367C23.3149 23.9345 23.9356 23.6747 24.4684 23.2794C25.0011 22.8842 25.4297 22.3656 25.7175 21.768C25.8745 21.4059 25.9202 21.0052 25.8489 20.617C25.8325 19.9923 24.7475 19.5154 24.1063 19.1208Z" fill="currentColor"/>
</svg>
