<svg width="38" height="30" viewBox="0 0 38 30" fill="none" xmlns="http://www.w3.org/2000/svg">
<path d="M31.8993 0.688232H5.9225C4.52281 0.688232 3.18051 1.24426 2.19078 2.23399C1.20104 3.22372 0.64502 4.56602 0.64502 5.96572V24.0508C0.649371 25.4476 1.20733 26.7859 2.1966 27.7721C3.18586 28.7583 4.52566 29.312 5.9225 29.312H31.8993C33.2962 29.312 34.636 28.7583 35.6252 27.7721C36.6145 26.7859 37.1724 25.4476 37.1768 24.0508V5.96572C37.1768 4.56602 36.6208 3.22372 35.631 2.23399C34.6413 1.24426 33.299 0.688232 31.8993 0.688232ZM31.8993 3.20375C32.1068 3.17861 32.3164 3.17861 32.5239 3.20375L21.5743 15.633C21.2423 16.0122 20.8325 16.3156 20.373 16.5227C19.9135 16.7298 19.4149 16.8356 18.9109 16.8332C18.409 16.8376 17.912 16.7326 17.4549 16.5253C16.9977 16.318 16.5914 16.0135 16.2639 15.633L5.29774 3.20375C5.50523 3.17861 5.71501 3.17861 5.9225 3.20375H31.8993ZM34.6613 24.1166C34.6569 24.8463 34.364 25.5447 33.8465 26.0591C33.3289 26.5736 32.629 26.8623 31.8993 26.8623H5.9225C5.19432 26.8623 4.49589 26.573 3.98098 26.0581C3.46607 25.5432 3.17679 24.8448 3.17679 24.1166V6.03155C3.17372 5.67133 3.24072 5.31394 3.37407 4.9793L14.3567 17.4579C14.9277 18.1026 15.6287 18.619 16.4137 18.9732C17.1986 19.3274 18.0497 19.5114 18.9109 19.5131C19.7721 19.5114 20.623 19.3274 21.408 18.9732C22.1929 18.619 22.8941 18.1026 23.4651 17.4579L34.4475 4.9793C34.5861 5.31293 34.6587 5.67029 34.6613 6.03155V24.1166Z" fill="currentColor"/>
</svg>
